# xmcd CD database file
#
# Track frame offsets:
#	150
#	9080
#	29345
#	37182
#	56822
#	64545
#	82447
#	90905
#	107752
#	114700
#	133050
#	139585
#	161930
#	170722
#
# Disc length: 2543 seconds
#
# Revision: 6
# Processed by: cddbd v1.5.2PL0 Copyright (c) Steve Scherf et al.
# Submitted via: CDex 1.70beta3
#
DISCID=c309ed0e
DTITLE=Various Artist - FINAL FANTASY X VOCAL COLLECTION
DYEAR=2002
DGENRE=Game
TTITLE0=monologue ～ユウナ～
TTITLE1=青木麻由子/ 涙のあとに
TTITLE2=monologue ～ティーダ～
TTITLE3=森田成一/A Ray of Hope
TTITLE4=dialogue ～ティーダ・ワッカ～
TTITLE5=森田成一／中井和哉/ And On We Go
TTITLE6=monologue ～リュック～
TTITLE7=松本まりか/ Get Happy !
TTITLE8=dialogue ～ユウナ・リュック・ルールー～
TTITLE9=青木麻由子／松本まりか／夏樹リオ/All The Way
TTITLE10=monologue ～アーロン～
TTITLE11=石川英郎/ 螺旋
TTITLE12=epilogue ～ティーダ・ユウナ・リュック・ルールー・ワッカ・キマリ～
TTITLE13=青木麻由子/ feel-Remix
EXTD=YEAR: 2002
EXTT0=
EXTT1=
EXTT2=
EXTT3=
EXTT4=
EXTT5=
EXTT6=
EXTT7=
EXTT8=
EXTT9=
EXTT10=
EXTT11=
EXTT12=
EXTT13=
PLAYORDER=
